<svg xmlns="http://www.w3.org/2000/svg" viewBox="0 0 374.71 99.62"><defs><style>.cls-1{fill:#3f816c;}</style></defs><title>LeerLevels_Logo_Horizontal</title><g id="Circles"><path class="cls-1" d="M249.19,252.31c-9,0-19.4-3.05-26.6-6.18-8.06-3.5-16.17-8.1-20.89-17.95-4.54-9.45-7.95-26.33-5.56-37.14,2.33-10.51,10.68-22.6,20.3-29.4,8.89-6.27,23.8-9.25,34-8.93,10.37.31,18.25,3.74,24.82,10.79h0c7,7.46,15,21.61,16.22,33.12,1.17,11.12-2.66,26.77-8.91,36.41-5.79,8.92-16.58,16.41-26.86,18.64A30.57,30.57,0,0,1,249.19,252.31Zm-.26-98.12c-9.83,0-23.41,2.88-31.62,8.68-9.35,6.59-17.45,18.31-19.7,28.5-2.32,10.49,1,26.94,5.44,36.16,4.51,9.41,12.35,13.84,20.14,17.23,8.81,3.82,22.51,7.54,32.16,5.45,9.92-2.16,20.33-9.39,25.92-18,6.08-9.38,9.81-24.61,8.67-35.43-1.17-11.19-9-25-15.82-32.26-6.27-6.73-13.82-10-23.76-10.31C249.89,154.19,249.41,154.19,248.93,154.19Z" transform="translate(-195.36 -152.69)"/><path class="cls-1" d="M251.13,250.32c-5.9,0-12-3.53-17.58-6.7-1.15-.66-2.29-1.32-3.4-1.92-.91-.5-1.84-1-2.78-1.49-6.78-3.6-13.79-7.32-18.37-15.14-5.19-8.85-11.5-26.43-9.86-36.41s10.87-17.11,19.69-22.83c8.57-5.57,23.4-11.44,32.43-11.14,8.77.26,15,5.34,21.6,12.88,4.26,4.84,14.25,17.34,15.17,28.81.84,10.57-5,24.17-10.28,32.61-5.47,8.77-15.18,18.75-23.17,20.89A13.43,13.43,0,0,1,251.13,250.32Zm-.51-94.14c-8.77,0-22.78,5.58-31,10.9-8.54,5.55-17.48,12.48-19,21.82-1.56,9.51,4.73,27,9.67,35.41,4.37,7.45,11.19,11.07,17.79,14.57l2.79,1.5c1.12.61,2.26,1.27,3.43,1.94,6.37,3.65,13.58,7.79,19.9,6.11,7.61-2,17-11.72,22.28-20.23,5.14-8.25,10.86-21.5,10-31.7-.88-11-10.64-23.21-14.79-27.94-6.37-7.25-12.3-12.12-20.52-12.37Z" transform="translate(-195.36 -152.69)"/><path class="cls-1" d="M250.67,246.18c-5.26,0-10.48-2.91-15.57-5.74-1.26-.7-2.52-1.4-3.77-2.05s-2.58-1.29-4-2c-6.19-3-13.21-6.35-17.15-13.07-4.71-8-8.8-24.05-7.22-33.44,1.4-8.4,7.49-16.63,16.69-22.61,7.79-5.05,22.25-9,30.95-8.44,8.26.53,13.86,5.09,19.74,11.77,3.82,4.35,12.82,15.63,13.85,26.32,1,10.07-3.6,23.64-8.37,31.29-5.12,8.21-14.88,15.94-22.22,17.61A13.55,13.55,0,0,1,250.67,246.18Zm-1.73-85.86c-8.42,0-21.47,3.72-28.44,8.25-8.85,5.75-14.7,13.62-16,21.59-1.53,9.09,2.45,24.63,7,32.44,3.71,6.32,10.22,9.45,16.51,12.48,1.4.67,2.72,1.31,4,2s2.54,1.36,3.81,2.07c5.79,3.22,11.78,6.55,17.47,5.26,7-1.58,16.34-9,21.28-16.94,4.64-7.44,9.07-20.6,8.14-30.35-1-10.26-9.75-21.23-13.48-25.47-5.79-6.58-10.94-10.76-18.7-11.26C250,160.33,249.5,160.32,248.94,160.32Z" transform="translate(-195.36 -152.69)"/><path class="cls-1" d="M250.4,240.32c-4.23,0-8.06-2-12.09-4.08-1.66-.87-3.37-1.76-5.14-2.51a61.44,61.44,0,0,0-6.08-2.07c-5.7-1.73-12.16-3.68-15.22-8.9-4.25-7.25-4.64-22.68-3.29-31,1-6.14,3.88-17.23,12-22.53,7.33-4.76,22.33-4.94,29.23-4.38,8.89.73,14.85,3.33,19.33,8.42,5.05,5.75,9.07,15.86,9.77,24.58.71,9-.95,22.38-5.44,29.58-4.32,6.92-13.89,11.66-21.12,12.77A12.5,12.5,0,0,1,250.4,240.32Zm-6.48-74.22c-7.72,0-17.39,1.06-22.47,4.36-7.68,5-10.43,15.61-11.39,21.51-1.32,8.12-1,23.08,3.1,30,2.76,4.7,8.66,6.49,14.37,8.21a60.32,60.32,0,0,1,6.23,2.13c1.82.78,3.56,1.68,5.24,2.56,4.43,2.3,8.62,4.47,13.17,3.78,6.72-1,16-5.62,20.08-12.09,4.16-6.67,5.92-19.81,5.21-28.66-.67-8.43-4.54-18.18-9.4-23.71-4.2-4.78-9.85-7.22-18.32-7.91C248,166.18,246.06,166.1,243.92,166.1Z" transform="translate(-195.36 -152.69)"/><path class="cls-1" d="M249.67,235.67c-4.06,0-7.49-1.51-11.1-3.09-1.28-.56-2.6-1.14-3.95-1.66a49.75,49.75,0,0,0-4.88-1.44c-4.59-1.19-9.79-2.55-12.88-7-4.13-5.95-8-18.83-6.87-27.15,1.14-8.82,7.19-19.26,13.48-23.27,5.73-3.65,15-2.82,22.52-2.16,1.14.1,2.24.2,3.25.27l2.77.18c6.32.38,12.29.74,16.43,5h0c5,5.21,8,15.84,8.55,23.51.72,9.22-.41,21.87-4.56,27.87s-13.69,8.05-21,8.83A17.19,17.19,0,0,1,249.67,235.67Zm-13.44-64.84c-4.5,0-8.9.55-12,2.5-6,3.8-11.7,13.75-12.79,22.19-1,8,2.64,20.38,6.62,26.11,2.77,4,7.47,5.22,12,6.4a50.57,50.57,0,0,1,5,1.49c1.39.53,2.73,1.12,4,1.69,3.92,1.72,7.62,3.35,12.08,2.88,7-.75,16.17-2.77,19.93-8.2s5-17.65,4.31-26.9c-.59-7.65-3.58-17.86-8.14-22.58-3.73-3.86-9.16-4.19-15.44-4.56l-2.79-.18c-1-.07-2.12-.17-3.28-.28C242.93,171.14,239.56,170.83,236.23,170.83Z" transform="translate(-195.36 -152.69)"/></g><g id="Fonts"><path class="cls-1" d="M311.82,218.45h-2.47V186h2.47Z" transform="translate(-195.36 -152.69)"/><path class="cls-1" d="M337.48,218.88a9,9,0,0,1-7-3.11,11.4,11.4,0,0,1-2.79-7.9v-1.14a11.71,11.71,0,0,1,2.77-8,8.61,8.61,0,0,1,6.72-3.18,8.3,8.3,0,0,1,6.5,2.62,10,10,0,0,1,2.37,7v2.12H330.17v.6a9.92,9.92,0,0,0,2,6.34,6.44,6.44,0,0,0,5.3,2.55,10.87,10.87,0,0,0,4-.64,8,8,0,0,0,2.81-1.85l1.06,1.7a9.2,9.2,0,0,1-3.21,2.13A12.43,12.43,0,0,1,337.48,218.88Zm-.31-21.21a5.94,5.94,0,0,0-4.63,2.1,9,9,0,0,0-2.18,5.27l0,.11h13.17v-.62a7.14,7.14,0,0,0-1.72-4.89A5.88,5.88,0,0,0,337.17,197.67Z" transform="translate(-195.36 -152.69)"/><path class="cls-1" d="M369.75,218.88a9,9,0,0,1-7-3.11,11.36,11.36,0,0,1-2.8-7.9v-1.14a11.72,11.72,0,0,1,2.78-8,8.61,8.61,0,0,1,6.72-3.18,8.32,8.32,0,0,1,6.5,2.62,10,10,0,0,1,2.37,7v2.12H362.44v.6a9.92,9.92,0,0,0,2,6.34,6.42,6.42,0,0,0,5.3,2.55,10.9,10.9,0,0,0,4-.64,7.83,7.83,0,0,0,2.8-1.85l1.06,1.7a9,9,0,0,1-3.21,2.13A12.34,12.34,0,0,1,369.75,218.88Zm-.31-21.21a6,6,0,0,0-4.64,2.1,9.08,9.08,0,0,0-2.18,5.27l0,.11h13.18v-.62a7.15,7.15,0,0,0-1.73-4.89A5.87,5.87,0,0,0,369.44,197.67Z" transform="translate(-195.36 -152.69)"/><path class="cls-1" d="M403.93,198.11l-1.85-.13a5.61,5.61,0,0,0-3.85,1.32,7.17,7.17,0,0,0-2.15,3.63v15.52h-2.5V196h2.18l.32,3.74V200a8.15,8.15,0,0,1,2.61-3.24,6.64,6.64,0,0,1,3.91-1.16,5.45,5.45,0,0,1,.92.07,5.73,5.73,0,0,1,.74.16Z" transform="translate(-195.36 -152.69)"/><path class="cls-1" d="M421.2,218.45h-2.48V186h2.48Z" transform="translate(-195.36 -152.69)"/><path class="cls-1" d="M446.86,218.88a9.06,9.06,0,0,1-7-3.11,11.4,11.4,0,0,1-2.79-7.9v-1.14a11.71,11.71,0,0,1,2.77-8,8.61,8.61,0,0,1,6.72-3.18,8.32,8.32,0,0,1,6.51,2.62,10,10,0,0,1,2.37,7v2.12H439.54v.6a9.87,9.87,0,0,0,2,6.34,6.42,6.42,0,0,0,5.3,2.55,10.81,10.81,0,0,0,4-.64,7.87,7.87,0,0,0,2.81-1.85l1.06,1.7a9.2,9.2,0,0,1-3.21,2.13A12.41,12.41,0,0,1,446.86,218.88Zm-.32-21.21a6,6,0,0,0-4.63,2.1,9,9,0,0,0-2.18,5.27l0,.11h13.17v-.62a7.14,7.14,0,0,0-1.72-4.89A5.88,5.88,0,0,0,446.54,197.67Z" transform="translate(-195.36 -152.69)"/><path class="cls-1" d="M477.09,212.82l.72,2.63h.13l.79-2.63L484.84,196h2.57l-8.54,22.48h-2L468.32,196h2.58Z" transform="translate(-195.36 -152.69)"/><path class="cls-1" d="M510.29,218.88a9,9,0,0,1-7-3.11,11.36,11.36,0,0,1-2.8-7.9v-1.14a11.72,11.72,0,0,1,2.78-8,8.61,8.61,0,0,1,6.72-3.18,8.32,8.32,0,0,1,6.5,2.62,10,10,0,0,1,2.37,7v2.12H503v.6a9.92,9.92,0,0,0,2,6.34,6.42,6.42,0,0,0,5.3,2.55,10.9,10.9,0,0,0,4-.64,7.83,7.83,0,0,0,2.8-1.85l1.06,1.7a9,9,0,0,1-3.21,2.13A12.34,12.34,0,0,1,510.29,218.88ZM510,197.67a6,6,0,0,0-4.64,2.1,9.08,9.08,0,0,0-2.18,5.27l0,.11h13.18v-.62a7.15,7.15,0,0,0-1.73-4.89A5.87,5.87,0,0,0,510,197.67Z" transform="translate(-195.36 -152.69)"/><path class="cls-1" d="M536.91,218.45h-2.48V186h2.48Z" transform="translate(-195.36 -152.69)"/><path class="cls-1" d="M567.59,212.72A3.61,3.61,0,0,0,566.3,210a10.47,10.47,0,0,0-4.69-1.93,15.58,15.58,0,0,1-6-2.31,4.77,4.77,0,0,1-1.92-4,5.41,5.41,0,0,1,2.17-4.35,8.74,8.74,0,0,1,5.74-1.78,9.07,9.07,0,0,1,6,1.88,5.62,5.62,0,0,1,2.12,4.71l0,.12h-2.31a4.14,4.14,0,0,0-1.57-3.22,6.22,6.22,0,0,0-4.23-1.37,6.13,6.13,0,0,0-4.08,1.17,3.51,3.51,0,0,0-1.36,2.74,3.25,3.25,0,0,0,1.17,2.56,11.4,11.4,0,0,0,4.69,1.78,15.11,15.11,0,0,1,6,2.45,5.06,5.06,0,0,1,2,4.22,5.46,5.46,0,0,1-2.28,4.55,11.42,11.42,0,0,1-12.44-.21,5.53,5.53,0,0,1-2.22-4.65l0-.13h2.29a4.12,4.12,0,0,0,2,3.52,8.33,8.33,0,0,0,4.34,1.09,6.89,6.89,0,0,0,4.26-1.18A3.51,3.51,0,0,0,567.59,212.72Z" transform="translate(-195.36 -152.69)"/></g></svg>